<?xml version="1.0" encoding="UTF-8"?>
<svg id="uuid-e1b3d77a-6222-433d-a36b-d943f61f1f62" data-name="Ebene 1" xmlns="http://www.w3.org/2000/svg" viewBox="0 0 120 120">
  <defs>
    <style>
      .uuid-3aa7fc6d-c420-43cf-9059-16adeac8152c {
        fill: #000000;
      }
    </style>
  </defs>
  <path class="uuid-3aa7fc6d-c420-43cf-9059-16adeac8152c" d="M36.95,59.69c-1.59-.26-3,.37-4.44,1.8s-1.51,2.86-1.51,5.42c0,1.39,.57,3.44,4.18,3.44h6.49c3.46,0,5.04-2.53,4.2-4.84-1.66-4.57-3.59-4.95-8.93-5.82Z"/>
  <path class="uuid-3aa7fc6d-c420-43cf-9059-16adeac8152c" d="M83.05,59.69c-5.34,.87-7.27,1.25-8.93,5.82-.84,2.32,.74,4.84,4.2,4.84h6.49c3.61,0,4.18-2.04,4.18-3.44,0-2.56-.07-3.98-1.51-5.42s-2.85-2.06-4.44-1.8Z"/>
  <path class="uuid-3aa7fc6d-c420-43cf-9059-16adeac8152c" d="M93.45,50.75l3.35-.59c.96-.17,1.65-1,1.65-1.97v-2.03c0-1.24-1.12-2.19-2.35-1.97l-5.31,.94c-1.12-2.72-2.44-5.9-3.63-8.69-2.93-6.82-5.65-7.97-9.26-9.04-3.41-1-11.06-1.89-17.9-1.89s-14.49,.88-17.9,1.89c-3.61,1.06-6.34,2.21-9.26,9.04-1.2,2.79-2.51,5.96-3.63,8.69l-5.31-.94c-1.22-.22-2.35,.73-2.35,1.97v2.03c0,.97,.7,1.8,1.65,1.97l3.35,.59c-3.72,3-7.55,5.93-7.55,11.89v27.36c0,2.21,1.79,4,4,4h10c2.21,0,4-1.79,4-4v-5h46v5c0,2.21,1.79,4,4,4h10c2.21,0,4-1.79,4-4v-27.36c0-5.96-3.84-8.89-7.55-11.89Zm-58.51-3.78c1.07-2.61,2.3-5.57,3.42-8.16,1.99-4.63,3-4.93,5.44-5.65,2.68-.79,9.64-1.64,16.21-1.64s13.52,.85,16.21,1.64c2.44,.72,3.46,1.02,5.44,5.65,1.11,2.6,2.34,5.55,3.41,8.16,.27,.67-.25,1.38-.97,1.31-6.35-.61-15.18-.99-24.09-.99s-17.75,.38-24.1,.99c-.71,.07-1.24-.64-.97-1.31Zm60.07,29.03c0,1.66-1.34,3-3,3H28c-1.66,0-3-1.34-3-3v-13.35c0-1.71,1.21-3.34,3.04-5.08,1.9-1.79,4.36-2.85,6.96-3.1,6.34-.61,15.82-1.17,25-1.17s18.66,.56,25,1.17c2.6,.25,5.06,1.31,6.96,3.1,1.83,1.73,3.04,3.37,3.04,5.08v13.35Z"/>
</svg>