<?xml version="1.0" encoding="UTF-8"?>
<svg id="uuid-6acd9d71-d5b0-425a-bfb1-88e195912da2" data-name="Ebene 1" xmlns="http://www.w3.org/2000/svg" viewBox="0 0 400 400">
  <defs>
    <style>
      .uuid-652141a8-6f34-482b-9f09-c6dec341193a {
        fill: red;
      }
    </style>
  </defs>
  <polygon class="uuid-652141a8-6f34-482b-9f09-c6dec341193a" points="252.42 119.3 200 171.72 147.58 119.3 119.3 147.58 171.72 200 119.3 252.42 147.58 280.7 200 228.28 252.42 280.7 280.7 252.42 228.28 200 280.7 147.58 252.42 119.3"/>
  <path class="uuid-652141a8-6f34-482b-9f09-c6dec341193a" d="M200,20C100.75,20,20,100.75,20,200s80.75,180,180,180,180-80.75,180-180S299.25,20,200,20Zm0,320c-77.19,0-140-62.81-140-140S122.81,60,200,60s140,62.81,140,140-62.81,140-140,140Z"/>
</svg>