<svg id="Calque_25" data-name="Calque 25" xmlns="http://www.w3.org/2000/svg" viewBox="0 0 36 30.88"><defs><style>.cls-1{fill:#ffffff;}</style></defs><path class="cls-1" d="M9.69,28.11l2.38-2.39a11.9,11.9,0,0,0,9.69,3.42,11.62,11.62,0,0,0,7.35-3.52A12,12,0,1,0,8.54,17.18h5L6.68,24,0,17.32l.06-.11h5A15.36,15.36,0,0,1,11,5.05,14.83,14.83,0,0,1,20.6,1.76,15.43,15.43,0,1,1,9.69,28.11Z" transform="translate(0 -1.76)"/><path class="cls-1" d="M21.4,10.37v.46c0,2.14,0,4.28,0,6.43a.57.57,0,0,0,.33.56l5.12,3,.56.35-1.21,2-.29-.15-6.77-4a.47.47,0,0,1-.3-.46c0-2.68,0-5.36,0-8,0-.06,0-.12,0-.21Z" transform="translate(0 -1.76)"/></svg>