<svg id="Ebene_1" data-name="Ebene 1" xmlns="http://www.w3.org/2000/svg" viewBox="0 0 120 120"><defs><style>.cls-1{fill:#ffffff;}</style></defs><path class="cls-1" d="M69,40a9,9,0,1,0-9,9A9,9,0,0,0,69,40ZM57,40a3,3,0,1,1,3,3A3,3,0,0,1,57,40Z"/><path class="cls-1" d="M90,55H77a44.62,44.62,0,0,0,3-15,20,20,0,0,0-40,0,44.62,44.62,0,0,0,3,15H30L20,100h80ZM60,26A14,14,0,0,1,74,40c0,7.07-3.14,16.16-9.08,26.3C63.22,69.21,61.5,71.83,60,74c-1.5-2.15-3.22-4.77-4.92-7.68C49.14,56.16,46,47.07,46,40A14,14,0,0,1,60,26ZM34.81,61h10.7A119,119,0,0,0,60,84,119,119,0,0,0,74.49,61h10.7l7.33,33h-65Z"/></svg>