<svg id="Ebene_1" data-name="Ebene 1" xmlns="http://www.w3.org/2000/svg" viewBox="0 0 400 400"><defs><style>.cls-1{fill:#ffffff;}</style></defs><path class="cls-1" d="M200,91.81a63.38,63.38,0,0,0-63.31,63.31h40a23.31,23.31,0,0,1,46.62,0c0,7.93-4.5,14.1-8.28,17.88-1.91,1.9-4.24,4-6.71,6.14-11.28,10-28.32,25-28.32,50.22v4.16h40v-4.16c0-6.47,4.73-11.36,14.78-20.23,2.83-2.49,5.74-5.06,8.53-7.85,12.9-12.9,20-29.29,20-46.16A63.38,63.38,0,0,0,200,91.81Z"/><path class="cls-1" d="M200,20C100.75,20,20,100.75,20,200s80.75,180,180,180,180-80.75,180-180S299.25,20,200,20Zm0,320c-77.19,0-140-62.81-140-140S122.81,60,200,60s140,62.81,140,140S277.19,340,200,340Z"/><rect class="cls-1" x="180" y="261.99" width="40" height="40"/></svg>